<?xml version="1.0" encoding="UTF-8"?>
<svg width="30" height="30" viewBox="0 0 30 30" xmlns="http://www.w3.org/2000/svg" id="diamond">

<g transform="scale(2)">
  <path d="
	  M 7.03715 1.20147
	  L 2.12542 6.7
	  C 2.04962 6.78393 2.00568 6.89005 2.00051 7
	  C 1.99535 7.10994 2.02925 7.21013 2.09689 7.3
	  L 7.0065 13.7601
	  C 7.06233 13.8343 7.13629 13.8947 7.22216 13.9365
	  C 7.30803 13.9782 7.40331 14 7.5 14
	  C 7.59669 14 7.69197 13.9782 7.77784 13.9365
	  C 7.86371 13.8947 7.93766 13.8343 7.9935 13.7601
	  L 12.9031 7.3
	  C 12.9707 7.21013 13.0047 7.10994 12.9995 7
	  C 12.9943 6.89005 12.9504 6.78393 12.8746 6.7
	  L 7.96285 1.20147
	  C 7.90591 1.13833 7.83501 1.08761 7.75508 1.05282
	  C 7.67514 1.01802 7.5881 1 7.5 1
	  C 7.4119 1 7.32486 1.01802 7.24492 1.05282
	  C 7.16499 1.08761 7.09409 1.13833 7.03715 1.20147
	  Z
	 "
	fill="#F1FDFF"
  />
</g>
</svg>
